<?xml version="1.0" encoding="UTF-8" standalone="no" ?>
<!DOCTYPE svg PUBLIC "-//W3C//DTD SVG 1.1//EN" "http://www.w3.org/Graphics/SVG/1.1/DTD/svg11.dtd">
<svg xmlns="http://www.w3.org/2000/svg" xmlns:xlink="http://www.w3.org/1999/xlink" version="1.1" width="1080" height="1080" viewBox="0 0 1080 1080" xml:space="preserve">
<desc>Created with Fabric.js 5.2.4</desc>
<defs>
</defs>
<g transform="matrix(1 0 0 1 540 540)" id="b2f54d94-1a7f-4fab-9987-670a7c337325"  >
<rect style="stroke: none; stroke-width: 1; stroke-dasharray: none; stroke-linecap: butt; stroke-dashoffset: 0; stroke-linejoin: miter; stroke-miterlimit: 4; fill: rgb(255,255,255); fill-rule: nonzero; opacity: 1; visibility: hidden;" vector-effect="non-scaling-stroke"  x="-540" y="-540" rx="0" ry="0" width="1080" height="1080" />
</g>
<g transform="matrix(1 0 0 1 540 540)" id="40dd1f08-15d0-4b07-b868-a979cc608fa5"  >
</g>
<g transform="matrix(1.33 0 0 -1.33 510.34 574.85)" id="path70" clip-path="url(#CLIPPATH_3)"  >
<clipPath id="CLIPPATH_3" >
	<path transform="matrix(1 0 0 1 42.09 -249.87) translate(-300.5, 0)" id="path48" clip-path="url(#undefined)" d="M 0 -595.875 L 601 -595.875 L 601 595.875 L 0 595.875 Z" stroke-linecap="round" />
</clipPath>
<path style="stroke: none; stroke-width: 1; stroke-dasharray: none; stroke-linecap: butt; stroke-dashoffset: 0; stroke-linejoin: miter; stroke-miterlimit: 4; fill: rgb(89,23,101); fill-rule: nonzero; opacity: 1;" vector-effect="non-scaling-stroke"  transform=" translate(-173, 249.87)" d="M 206.17275 -457.23475 C 209.74800000000002 -471.53575 213.72050000000002 -485.4395 218.4875 -499.7405 C 217.693 -485.04225 217.29575 -470.344 217.29575 -456.043 C 213.7205 -456.44025 210.14525 -456.83750000000003 206.17275 -457.23475 z M 113.21625 -25.026749999999993 C 75.4775 -16.6845 37.73875 -8.34225 0 0 C 3.178 -39.32775 8.7395 -77.861 16.6845 -114.80525 C 30.191000000000003 -114.01075 43.697500000000005 -113.6135 57.204 -112.819 L 57.204 -96.1345 C 75.47749999999999 -96.1345 93.751 -96.1345 112.0245 -96.1345 C 139.0375 -96.1345 166.0505 -96.1345 193.0635 -96.1345 C 234.77475 -96.53175 273.70525 -111.23 304.69075 -135.8595 C 317.40274999999997 -114.408 331.30649999999997 -94.5455 346.00475 -75.87475 C 268.541 -59.190250000000006 190.68 -42.10850000000001 113.21625 -25.026750000000007 z M 228.0215 -187.502 C 220.47375 -183.5295 212.92600000000002 -180.74875 204.981 -178.76250000000002 C 189.091 -239.93900000000002 183.92675 -307.4715 191.4745 -377.78475000000003 C 202.5975 -376.593 212.92600000000002 -373.81225 223.2545 -369.04525 C 230.405 -316.60825 243.91150000000002 -267.34925 261.78775 -221.6655 C 254.24 -207.76175 242.71975 -195.84425000000002 228.0215 -187.502 z" stroke-linecap="round" />
</g>
<g transform="matrix(1.33 0 0 -1.33 368.39 650.07)" id="path78" clip-path="url(#CLIPPATH_4)"  >
<clipPath id="CLIPPATH_4" >
	<path transform="matrix(1 0 0 1 148.55 -193.46) translate(-300.5, 0)" id="path48" clip-path="url(#undefined)" d="M 0 -595.875 L 601 -595.875 L 601 595.875 L 0 595.875 Z" stroke-linecap="round" />
</clipPath>
<path style="stroke: none; stroke-width: 1; stroke-dasharray: none; stroke-linecap: butt; stroke-dashoffset: 0; stroke-linejoin: miter; stroke-miterlimit: 4; fill: rgb(236,28,65); fill-rule: nonzero; opacity: 1;" vector-effect="non-scaling-stroke"  transform=" translate(-151.95, 193.46)" d="M 102.09325 -1.98625 C 115.59975 -1.19175 129.10625 -0.7945 142.61275 0 L 142.61275 -135.8595 L 142.61275 -251.85649999999998 C 83.02525 -184.324 33.369 -101.696 0 -6.75325 C 34.1635 -5.164250000000001 67.92975 -3.5752500000000005 102.09325 -1.98625 z M 303.89625 -386.9215 L 303.89625 -386.9215 C 299.12925 -372.6205 295.15675 -358.71675 291.5815 -344.41575 C 288.4035 -344.813 285.2255 -344.813 282.0475 -344.813 C 280.85575 -344.813 279.664 -344.813 278.075 -344.813 C 274.10249999999996 -344.813 270.13 -344.813 266.15749999999997 -344.813 C 258.2125 -344.813 250.26749999999998 -344.813 241.92524999999998 -344.813 C 262.185 -360.30575 282.842 -374.2095 303.89624999999995 -386.9215 z M 277.2805 -264.96574999999996 C 269.3355 -194.65249999999997 274.897 -127.11999999999995 290.78700000000003 -65.94349999999994 C 273.30800000000005 -61.57374999999995 255.03450000000004 -61.97099999999995 236.76100000000002 -61.97099999999995 L 236.76100000000002 -228.81599999999995 L 236.76100000000002 -266.55474999999996 C 241.13075000000003 -266.55474999999996 245.10325000000003 -266.55474999999996 249.473 -266.55474999999996 C 258.60975 -266.55474999999996 268.14375 -266.15749999999997 277.2805 -264.96574999999996 z" stroke-linecap="round" />
</g>
<g transform="matrix(1.33 0 0 -1.33 642.76 510.76)" id="path86" clip-path="url(#CLIPPATH_5)"  >
<clipPath id="CLIPPATH_5" >
	<path transform="matrix(1 0 0 1 -57.22 -297.94) translate(-300.5, 0)" id="path48" clip-path="url(#undefined)" d="M 0 -595.875 L 601 -595.875 L 601 595.875 L 0 595.875 Z" stroke-linecap="round" />
</clipPath>
<path style="stroke: none; stroke-width: 1; stroke-dasharray: none; stroke-linecap: butt; stroke-dashoffset: 0; stroke-linejoin: miter; stroke-miterlimit: 4; fill: rgb(54,19,71); fill-rule: nonzero; opacity: 1;" vector-effect="non-scaling-stroke"  transform=" translate(-203.59, 297.94)" d="M 154.9275 -465.17975 C 156.5165 -464.38525 158.1055 -463.59075 159.29725000000002 -462.79625 C 191.07725000000002 -444.91999999999996 207.76175 -408.77025 207.76175 -373.01775 C 207.76175 -353.94975 202.99475 -334.48449999999997 193.46075000000002 -317.79999999999995 C 175.58450000000002 -363.48375 162.47525000000002 -412.74274999999994 154.9275 -465.17974999999996 z M 149.76325 -595.875 L 149.76325 -595.875 C 152.94125 -580.38225 156.91375 -564.8895 160.88625 -549.794 C 156.91375 -550.5885 152.94125 -551.383 148.5715 -551.78025 C 148.5715 -566.4785 148.96875 -581.17675 149.76325 -595.875 z M 59.19025 0 C 51.6425 -40.91675 46.8755 -81.43625 44.492 -121.16125 C 121.95575 -138.243 199.81674999999998 -155.32475 277.2805 -172.00925 C 262.58225000000004 -190.68 248.6785 -210.54250000000002 235.96650000000002 -231.994 C 257.81525000000005 -249.07575 275.6915 -271.32175 288.00625 -296.3485 C 323.75875 -250.66475 364.27825 -211.73425 407.18125000000003 -179.95425 C 291.18425 -119.9695 175.18725 -59.98475 59.19025 0 Z M 243.117 -254.63725 C 238.74724999999998 -250.26749999999998 234.3775 -246.295 229.6105 -242.71975 C 208.55625 -225.638 184.324 -214.11775 158.50275 -208.55625 C 147.37975 -206.17275 135.46224999999998 -204.58375 123.942 -204.58375 C 112.42174999999999 -204.58375 100.50424999999998 -204.58375 88.984 -204.58375 C 85.40875 -204.58375 82.23075 -204.58375 78.65549999999999 -204.58375 C 66.73799999999999 -204.58375 54.82049999999999 -204.58375 43.30024999999999 -204.58375 C 40.122249999999994 -204.58375 36.94424999999999 -204.58375 33.36899999999999 -204.58375 C 22.245999999999995 -204.58375 11.122999999999994 -204.58375 -7.105427357601002e-15 -204.58375 L -7.105427357601002e-15 -208.55625 L -7.105427357601002e-15 -215.70675 C 7.547749999999993 -215.70675 14.698249999999993 -215.70675 22.24599999999999 -215.70675 C 29.396499999999993 -215.70675 36.54699999999999 -215.70675 43.30024999999999 -215.70675 C 51.24524999999999 -215.70675 59.19024999999999 -215.70675 67.13524999999998 -215.70675 C 82.23074999999999 -215.70675 97.32624999999999 -215.70675 112.42174999999997 -215.70675 C 126.32549999999998 -215.70675 139.83199999999997 -217.693 152.94124999999997 -220.871 C 177.96799999999996 -227.227 201.00849999999997 -239.54175 221.26824999999997 -256.62350000000004 C 224.84349999999998 -259.40425000000005 228.02149999999997 -262.58225000000004 231.19949999999997 -265.76025000000004 C 247.48674999999997 -282.0475 260.19874999999996 -300.71825 268.541 -320.97800000000007 C 276.88325 -340.8405000000001 281.253 -362.2920000000001 281.253 -384.53800000000007 C 281.253 -426.2492500000001 265.76025 -465.57700000000006 237.15824999999998 -496.9597500000001 C 238.74724999999998 -495.3707500000001 240.33624999999998 -493.7817500000001 241.92524999999998 -492.1927500000001 C 274.49974999999995 -460.0155000000001 291.97875 -417.9070000000001 291.97875 -373.4150000000001 C 291.97875 -350.37450000000007 287.21175 -328.1285000000001 278.075 -307.4715000000001 C 270.92449999999997 -288.0062500000001 258.60974999999996 -270.1300000000001 243.117 -254.6372500000001 z M 153.3385 -479.0835 C 143.80450000000002 -482.65875 134.2705 -485.04225 124.7365 -486.23400000000004 C 115.99700000000001 -487.42575000000005 107.65475 -487.82300000000004 99.70975000000001 -487.82300000000004 C 95.73725000000002 -487.82300000000004 92.16200000000002 -487.82300000000004 88.58675000000001 -487.82300000000004 L 70.7105 -487.82300000000004 L 70.7105 -395.26375 L 70.7105 -269.73275 L 59.5875 -269.73275 L 59.5875 -345.6075 L 59.5875 -481.86425 L 59.5875 -498.54875000000004 L 70.7105 -498.54875000000004 L 77.46374999999999 -498.54875000000004 C 85.80599999999998 -498.54875000000004 94.54549999999999 -498.54875000000004 103.68224999999998 -497.75425 C 110.83274999999998 -497.357 118.38049999999998 -496.16525 125.92824999999998 -494.57625 C 135.06499999999997 -492.59000000000003 143.80449999999996 -489.41200000000003 152.54399999999998 -485.04225 C 153.33849999999998 -484.64500000000004 153.73575 -484.24775 154.53025 -484.24775 C 164.85875 -478.68625 173.9955 -471.1385 181.54325 -462.00175 C 176.77625 -466.3715 171.21475 -469.94675 165.65325 -473.12475 C 161.2835 -475.50825000000003 157.311 -477.4945 153.3385 -479.0835 z" stroke-linecap="round" />
</g>
</svg>